<svg width="23" height="27" viewBox="0 0 23 27" fill="none" xmlns="http://www.w3.org/2000/svg">
<path fill-rule="evenodd" clip-rule="evenodd" d="M11.334 9.33334C10.0473 9.33334 9.00067 10.38 9.00067 11.668C9.00067 12.9547 10.0473 14 11.334 14C12.6207 14 13.6673 12.9547 13.6673 11.668C13.6673 10.38 12.6207 9.33334 11.334 9.33334ZM11.334 16C8.94467 16 7.00067 14.0573 7.00067 11.668C7.00067 9.27734 8.94467 7.33334 11.334 7.33334C13.7233 7.33334 15.6673 9.27734 15.6673 11.668C15.6673 14.0573 13.7233 16 11.334 16Z" fill="#8456EC"/>
<mask id="mask0_3204_178" style="mask-type:alpha" maskUnits="userSpaceOnUse" x="0" y="0" width="23" height="27">
<path fill-rule="evenodd" clip-rule="evenodd" d="M0.333344 0.666672H22.3327V26.6667H0.333344V0.666672Z" fill="white"/>
</mask>
<g mask="url(#mask0_3204_178)">
<path fill-rule="evenodd" clip-rule="evenodd" d="M11.3327 2.66667C6.37001 2.66667 2.33267 6.74267 2.33267 11.7507C2.33267 18.1227 9.83134 24.3307 11.3327 24.6613C12.834 24.3293 20.3327 18.1213 20.3327 11.7507C20.3327 6.74267 16.2953 2.66667 11.3327 2.66667ZM11.3327 26.6667C8.94067 26.6667 0.332672 19.264 0.332672 11.7507C0.332672 5.63867 5.26734 0.666672 11.3327 0.666672C17.398 0.666672 22.3327 5.63867 22.3327 11.7507C22.3327 19.264 13.7247 26.6667 11.3327 26.6667Z" fill="#8456EC"/>
</g>
</svg>
